# xmcd CD database file
#
# Track frame offsets:
#	150
#	24463
#	42298
#	69148
#	98248
#	109373
#	126855
#	147918
#	159118
#	173830
#	191103
#	208048
#	226858
#	242433
#	273243
#	286570
#	307390
#
# Disc length: 4313 seconds
#
# Revision: 0
# Processed by: cddbd v1.5.1PL2 Copyright (c) Steve Scherf et al.
# Submitted via: CDex 1.51
#
DISCID=e810d711
DTITLE=CRAZE - stupidxc 2005 -LIVE/NOSE-
DYEAR=2005
DGENRE=ロック (日本)
TTITLE0=Stay A Boy
TTITLE1=LIVESBEAT
TTITLE2=with you
TTITLE3=未来へ向かって
TTITLE4=THAT'S LIFE
TTITLE5=汚れ者RHAPSODY
TTITLE6=GO IN MORE AND MORE
TTITLE7=すばらしき明日へ
TTITLE8=アヂト
TTITLE9=GORGEOUS
TTITLE10=裸体
TTITLE11=Cabaret of illusion
TTITLE12=FEELING
TTITLE13=刹那夜
TTITLE14=TRUE HEART
TTITLE15=OWN WAY OWN LIFE
TTITLE16=[D]ear [C]ool DEAD
EXTD=YEAR: 2005/10/26
EXTT0=
EXTT1=
EXTT2=
EXTT3=
EXTT4=
EXTT5=
EXTT6=
EXTT7=
EXTT8=
EXTT9=
EXTT10=
EXTT11=
EXTT12=
EXTT13=
EXTT14=
EXTT15=
EXTT16=
PLAYORDER=
